<svg width="25" height="24" viewBox="0 0 25 24" fill="none" xmlns="http://www.w3.org/2000/svg">
<path fill-rule="evenodd" clip-rule="evenodd" d="M12.0928 1.25C7.81261 1.25 4.34281 4.71979 4.34281 9V9.7041C4.34281 10.401 4.13652 11.0824 3.74994 11.6622L2.60134 13.3851C1.26824 15.3848 2.28595 18.1028 4.60454 18.7351C5.36015 18.9412 6.12215 19.1155 6.88855 19.2581L6.89045 19.2632C7.65944 21.3151 9.71476 22.75 12.0927 22.75C14.4707 22.75 16.5261 21.3151 17.295 19.2632L17.2969 19.2581C18.0634 19.1155 18.8254 18.9412 19.5811 18.7351C21.8997 18.1028 22.9174 15.3848 21.5843 13.3851L20.4357 11.6622C20.0491 11.0824 19.8428 10.401 19.8428 9.7041V9C19.8428 4.71979 16.373 1.25 12.0928 1.25ZM15.4692 19.537C13.2263 19.805 10.9592 19.8049 8.71626 19.5369C9.42722 20.5585 10.6638 21.25 12.0927 21.25C13.5217 21.25 14.7583 20.5585 15.4692 19.537ZM5.84281 9C5.84281 5.54822 8.64103 2.75 12.0928 2.75C15.5446 2.75 18.3428 5.54822 18.3428 9V9.7041C18.3428 10.6972 18.6368 11.668 19.1876 12.4943L20.3362 14.2172C21.1014 15.3649 20.5172 16.925 19.1864 17.288C14.5422 18.5546 9.64347 18.5546 4.99922 17.288C3.66839 16.925 3.08424 15.3649 3.84941 14.2172L4.99802 12.4943C5.54887 11.668 5.84281 10.6972 5.84281 9.7041V9Z" fill="white"/>
</svg>
