<svg width="25" height="24" viewBox="0 0 25 24" fill="none" xmlns="http://www.w3.org/2000/svg">
<path fill-rule="evenodd" clip-rule="evenodd" d="M11.3591 1.25H14.4378C16.0412 1.24999 17.2981 1.24999 18.3023 1.34547C19.3259 1.44279 20.164 1.64457 20.9028 2.09732C21.6765 2.57144 22.327 3.22194 22.8011 3.99563C23.2539 4.73445 23.4557 5.57256 23.553 6.59611C23.6484 7.60029 23.6484 8.85725 23.6484 10.4606V11.5278C23.6484 12.6691 23.6484 13.564 23.5991 14.2868C23.5489 15.0223 23.4452 15.6344 23.2107 16.2004C22.6272 17.6093 21.5078 18.7287 20.0989 19.3123C19.2939 19.6457 18.377 19.7197 17.1217 19.7413C16.6826 19.7489 16.4045 19.7545 16.1925 19.7779C15.9944 19.7999 15.9176 19.832 15.8727 19.8582C15.8253 19.8857 15.7607 19.936 15.6485 20.0898C15.5272 20.2564 15.3901 20.4865 15.1726 20.8539L14.6305 21.7697C13.8569 23.0767 11.9399 23.0767 11.1663 21.7697L10.6242 20.8539C10.4068 20.4865 10.2697 20.2564 10.1483 20.0898C10.0362 19.936 9.97156 19.8857 9.92416 19.8582C9.87922 19.832 9.80242 19.7999 9.60432 19.7779C9.39231 19.7545 9.11419 19.7489 8.67509 19.7413C7.41981 19.7197 6.50298 19.6457 5.69801 19.3123C4.2891 18.7287 3.16972 17.6093 2.58613 16.2004C2.35167 15.6344 2.24793 15.0223 2.19775 14.2868C2.14843 13.564 2.14843 12.6691 2.14844 11.5278L2.14844 10.4606C2.14843 8.85726 2.14843 7.60029 2.2439 6.59611C2.34122 5.57256 2.54301 4.73445 2.99576 3.99563C3.46988 3.22194 4.12038 2.57144 4.89407 2.09732C5.63289 1.64457 6.47099 1.44279 7.49454 1.34547C8.49873 1.24999 9.7557 1.24999 11.3591 1.25ZM7.63653 2.83873C6.72277 2.92561 6.14134 3.09223 5.67782 3.37628C5.10596 3.72672 4.62515 4.20752 4.27472 4.77938C3.99067 5.24291 3.82405 5.82434 3.73717 6.73809C3.64923 7.663 3.64844 8.84876 3.64844 10.5V11.5C3.64844 12.6751 3.64884 13.5189 3.69427 14.1847C3.73924 14.8438 3.82581 15.2736 3.97195 15.6264C4.4033 16.6678 5.23066 17.4951 6.27203 17.9265C6.78767 18.1401 7.4455 18.2199 8.70094 18.2416L8.73276 18.2421C9.13075 18.249 9.47953 18.2549 9.76941 18.287C10.0809 18.3215 10.3855 18.3912 10.6783 18.5615C10.9686 18.7304 11.178 18.9559 11.3605 19.2063C11.5292 19.4378 11.7025 19.7306 11.8988 20.0623L12.4572 21.0057C12.6499 21.3313 13.1469 21.3313 13.3397 21.0057L13.898 20.0623C14.0943 19.7306 14.2677 19.4378 14.4363 19.2063C14.6189 18.9559 14.8282 18.7304 15.1185 18.5615C15.4113 18.3912 15.7159 18.3215 16.0274 18.287C16.3173 18.2549 16.6661 18.249 17.0641 18.2421L17.0959 18.2416C18.3514 18.2199 19.0092 18.1401 19.5248 17.9265C20.5662 17.4951 21.3936 16.6678 21.8249 15.6264C21.9711 15.2736 22.0576 14.8438 22.1026 14.1847C22.148 13.5189 22.1484 12.6751 22.1484 11.5V10.5C22.1484 8.84876 22.1476 7.663 22.0597 6.73809C21.9728 5.82434 21.8062 5.24291 21.5222 4.77938C21.1717 4.20752 20.6909 3.72672 20.1191 3.37628C19.6555 3.09223 19.0741 2.92561 18.1604 2.83873C17.2354 2.75079 16.0497 2.75 14.3984 2.75H11.3984C9.7472 2.75 8.56144 2.75079 7.63653 2.83873Z" fill="white"/>
<path d="M9.89844 11C9.89844 11.5523 9.45072 12 8.89844 12C8.34615 12 7.89844 11.5523 7.89844 11C7.89844 10.4477 8.34615 10 8.89844 10C9.45072 10 9.89844 10.4477 9.89844 11Z" fill="white"/>
<path d="M13.8984 11C13.8984 11.5523 13.4507 12 12.8984 12C12.3462 12 11.8984 11.5523 11.8984 11C11.8984 10.4477 12.3462 10 12.8984 10C13.4507 10 13.8984 10.4477 13.8984 11Z" fill="white"/>
<path d="M17.8984 11C17.8984 11.5523 17.4507 12 16.8984 12C16.3462 12 15.8984 11.5523 15.8984 11C15.8984 10.4477 16.3462 10 16.8984 10C17.4507 10 17.8984 10.4477 17.8984 11Z" fill="white"/>
</svg>
