<svg width="25" height="24" viewBox="0 0 25 24" fill="none" xmlns="http://www.w3.org/2000/svg">
<path d="M11.5469 18C11.5469 18.4142 11.8827 18.75 12.2969 18.75C12.7111 18.75 13.0469 18.4142 13.0469 18V15C13.0469 14.5858 12.7111 14.25 12.2969 14.25C11.8827 14.25 11.5469 14.5858 11.5469 15V18Z" fill="white"/>
<path fill-rule="evenodd" clip-rule="evenodd" d="M12.2969 1.25C11.5888 1.25 10.9454 1.45282 10.2474 1.79224C9.57272 2.12035 8.7933 2.60409 7.81973 3.20832L5.75316 4.4909C4.83196 5.06261 4.09432 5.5204 3.52578 5.95581C2.93702 6.40669 2.48482 6.86589 2.15819 7.46263C1.83223 8.05812 1.68544 8.69174 1.61506 9.4407C1.54686 10.1665 1.54687 11.0541 1.54688 12.1672V13.7799C1.54686 15.6837 1.54685 17.1866 1.69958 18.3616C1.85625 19.567 2.18544 20.5401 2.92923 21.3094C3.67646 22.0824 4.62733 22.4277 5.80448 22.5914C6.94536 22.75 8.40244 22.75 10.2387 22.75H14.355C16.1913 22.75 17.6484 22.75 18.7893 22.5914C19.9664 22.4277 20.9173 22.0824 21.6645 21.3094C22.4083 20.5401 22.7375 19.567 22.8942 18.3616C23.0469 17.1866 23.0469 15.6838 23.0469 13.7799V12.1672C23.0469 11.0541 23.0469 10.1665 22.9787 9.4407C22.9083 8.69174 22.7615 8.05812 22.4356 7.46263C22.1089 6.86589 21.6567 6.40669 21.068 5.95581C20.4994 5.5204 19.7618 5.06262 18.8406 4.49091L16.774 3.20831C15.8005 2.60409 15.021 2.12034 14.3463 1.79224C13.6483 1.45282 13.005 1.25 12.2969 1.25ZM8.5764 4.50412C9.59216 3.87371 10.3064 3.43153 10.9034 3.1412C11.4851 2.85833 11.8971 2.75 12.2969 2.75C12.6967 2.75 13.1086 2.85833 13.6903 3.14119C14.2874 3.43153 15.0016 3.87371 16.0173 4.50412L18.0173 5.74537C18.9782 6.34169 19.6528 6.76135 20.156 7.1467C20.6455 7.52164 20.9272 7.83106 21.1198 8.18285C21.313 8.53589 21.4258 8.94865 21.4853 9.58104C21.5461 10.2286 21.5469 11.0458 21.5469 12.2039V13.725C21.5469 15.6959 21.5454 17.1012 21.4067 18.1683C21.2705 19.2163 21.0139 19.8244 20.5861 20.2669C20.1617 20.7058 19.584 20.9664 18.5827 21.1057C17.557 21.2483 16.2044 21.25 14.2969 21.25H10.2969C8.38935 21.25 7.03671 21.2483 6.0111 21.1057C5.00973 20.9664 4.43201 20.7058 4.00766 20.2669C3.57989 19.8244 3.32329 19.2163 3.18707 18.1683C3.04837 17.1012 3.04688 15.6959 3.04688 13.725V12.2039C3.04688 11.0458 3.04764 10.2286 3.10849 9.58104C3.16791 8.94865 3.28072 8.53589 3.47397 8.18285C3.66653 7.83106 3.9482 7.52164 4.43779 7.1467C4.94097 6.76135 5.61557 6.34169 6.5764 5.74537L8.5764 4.50412Z" fill="white"/>
</svg>
