<svg width="25" height="24" viewBox="0 0 25 24" fill="none" xmlns="http://www.w3.org/2000/svg">
<path d="M12.8578 11.62C12.8278 11.62 12.8078 11.62 12.7778 11.62C12.7278 11.61 12.6578 11.61 12.5978 11.62C9.69781 11.53 7.50781 9.25 7.50781 6.44C7.50781 3.58 9.83781 1.25 12.6978 1.25C15.5578 1.25 17.8878 3.58 17.8878 6.44C17.8778 9.25 15.6778 11.53 12.8878 11.62C12.8778 11.62 12.8678 11.62 12.8578 11.62ZM12.6978 2.75C10.6678 2.75 9.00781 4.41 9.00781 6.44C9.00781 8.44 10.5678 10.05 12.5578 10.12C12.6078 10.11 12.7478 10.11 12.8778 10.12C14.8378 10.03 16.3778 8.42 16.3878 6.44C16.3878 4.41 14.7278 2.75 12.6978 2.75Z" fill="white"/>
<path d="M12.8669 22.55C10.9069 22.55 8.93688 22.05 7.44688 21.05C6.05688 20.13 5.29688 18.87 5.29688 17.5C5.29688 16.13 6.05688 14.86 7.44688 13.93C10.4469 11.94 15.3069 11.94 18.2869 13.93C19.6669 14.85 20.4369 16.11 20.4369 17.48C20.4369 18.85 19.6769 20.12 18.2869 21.05C16.7869 22.05 14.8269 22.55 12.8669 22.55ZM8.27688 15.19C7.31687 15.83 6.79688 16.65 6.79688 17.51C6.79688 18.36 7.32687 19.18 8.27688 19.81C10.7669 21.48 14.9669 21.48 17.4569 19.81C18.4169 19.17 18.9369 18.35 18.9369 17.49C18.9369 16.64 18.4069 15.82 17.4569 15.19C14.9669 13.53 10.7669 13.53 8.27688 15.19Z" fill="white"/>
</svg>
