<svg width="20" height="20" viewBox="0 0 20 20" fill="none" xmlns="http://www.w3.org/2000/svg">
<path fill-rule="evenodd" clip-rule="evenodd" d="M6.03906 4.99999C6.03906 2.81386 7.81127 1.04166 9.9974 1.04166C12.1835 1.04166 13.9557 2.81386 13.9557 4.99999C13.9557 7.18612 12.1835 8.95832 9.9974 8.95832C7.81127 8.95832 6.03906 7.18612 6.03906 4.99999ZM9.9974 2.29166C8.50162 2.29166 7.28906 3.50422 7.28906 4.99999C7.28906 6.49576 8.50162 7.70832 9.9974 7.70832C11.4932 7.70832 12.7057 6.49576 12.7057 4.99999C12.7057 3.50422 11.4932 2.29166 9.9974 2.29166Z" fill="#FAFAFA"/>
<path d="M14.7891 13.8889C14.7891 13.5437 14.5092 13.2639 14.1641 13.2639C13.8189 13.2639 13.5391 13.5437 13.5391 13.8889V14.375H13.0528C12.7076 14.375 12.4278 14.6548 12.4278 15C12.4278 15.3452 12.7076 15.625 13.0528 15.625H13.5391V16.1111C13.5391 16.4563 13.8189 16.7361 14.1641 16.7361C14.5092 16.7361 14.7891 16.4563 14.7891 16.1111V15.625H15.275C15.6202 15.625 15.9 15.3452 15.9 15C15.9 14.6548 15.6202 14.375 15.275 14.375H14.7891V13.8889Z" fill="#FAFAFA"/>
<path fill-rule="evenodd" clip-rule="evenodd" d="M14.0072 11.0447C14.0592 11.0427 14.1115 11.0417 14.1641 11.0417C16.3502 11.0417 18.1224 12.8139 18.1224 15C18.1224 17.1861 16.3502 18.9583 14.1641 18.9583C13.1811 18.9583 12.2818 18.6 11.5897 18.0069C11.08 18.0841 10.5463 18.125 9.9974 18.125C8.29795 18.125 6.72866 17.7327 5.56252 17.0663C4.41406 16.4101 3.53906 15.4082 3.53906 14.1667C3.53906 12.9251 4.41406 11.9232 5.56252 11.267C6.72866 10.6006 8.29795 10.2083 9.9974 10.2083C11.5011 10.2083 12.8995 10.5153 14.0072 11.0447ZM14.1641 12.2917C12.6683 12.2917 11.4557 13.5042 11.4557 15C11.4557 16.4958 12.6683 17.7083 14.1641 17.7083C15.6598 17.7083 16.8724 16.4958 16.8724 15C16.8724 13.5042 15.6598 12.2917 14.1641 12.2917ZM10.6648 16.852C10.3717 16.2994 10.2057 15.6691 10.2057 15C10.2057 13.6074 10.9249 12.3828 12.012 11.6772C11.3947 11.537 10.715 11.4583 9.9974 11.4583C8.47518 11.4583 7.1278 11.8122 6.18269 12.3523C5.2199 12.9025 4.78906 13.5673 4.78906 14.1667C4.78906 14.7661 5.2199 15.4309 6.18269 15.981C7.1278 16.5211 8.47518 16.875 9.9974 16.875C10.2236 16.875 10.4464 16.8672 10.6648 16.852Z" fill="#FAFAFA"/>
</svg>
