<svg width="20" height="20" viewBox="0 0 20 20" fill="none" xmlns="http://www.w3.org/2000/svg">
<path d="M16.6556 3.32594C15.3616 2.05828 13.5878 2.00993 12.685 2.8944L9.60162 5.91521C9.35505 6.15677 8.95934 6.15271 8.71778 5.90615C8.47622 5.65958 8.48028 5.26387 8.72684 5.02231L11.8102 2.0015C13.3402 0.502607 15.905 0.84067 17.5303 2.43304C19.158 4.02764 19.5123 6.56266 17.9708 8.07292L15.5482 10.4464C15.3016 10.688 14.9059 10.6839 14.6643 10.4374C14.4228 10.1908 14.4268 9.79511 14.6734 9.55354L17.096 7.18002C17.9872 6.30692 17.9472 4.59137 16.6556 3.32594Z" fill="#171717"/>
<path d="M5.5176 2.98664C5.32613 2.69943 4.93808 2.62182 4.65088 2.81329C4.36367 3.00476 4.28606 3.39281 4.47753 3.68001L6.1442 6.18001C6.33567 6.46722 6.72371 6.54483 7.01092 6.35335C7.29813 6.16188 7.37573 5.77384 7.18426 5.48664L5.5176 2.98664Z" fill="#171717"/>
<path d="M1.86187 6.07373C1.53441 5.96457 1.18046 6.14155 1.07131 6.46901C0.96215 6.79648 1.13913 7.15043 1.46659 7.25958L6.46659 8.92625C6.79405 9.03541 7.148 8.85843 7.25716 8.53097C7.36631 8.2035 7.18934 7.84955 6.86187 7.7404L1.86187 6.07373Z" fill="#171717"/>
<path d="M5.60386 10.4216C5.83674 10.1669 5.81897 9.77153 5.56419 9.53866C5.3094 9.30578 4.91407 9.32354 4.68119 9.57833L3.63048 10.7279C2.19145 12.3023 2.50576 14.939 4.05077 16.6293C5.60507 18.3299 8.10947 18.7162 9.59661 17.0892L12.9589 13.4105C13.1918 13.1557 13.174 12.7604 12.9192 12.5275C12.6644 12.2946 12.2691 12.3124 12.0362 12.5672L8.67395 16.2458C7.83989 17.1584 6.20455 17.133 4.97343 15.786C3.73301 14.4289 3.67098 12.5364 4.55314 11.5712L5.60386 10.4216Z" fill="#171717"/>
</svg>
