<svg width="20" height="20" viewBox="0 0 20 20" fill="none" xmlns="http://www.w3.org/2000/svg">
<path d="M13.7085 12.9692C13.0619 13.5326 12.2551 14.2337 10.7881 14.2337H9.9132C8.85273 14.2337 7.88849 13.8559 7.1985 13.1701C6.52449 12.5003 6.15325 11.5834 6.15325 10.5882V9.41183C6.15325 8.41655 6.52449 7.49967 7.1985 6.82993C7.88849 6.14414 8.85273 5.76634 9.9132 5.76634H10.7881C12.2551 5.76634 13.0611 6.46744 13.7085 7.03078C14.3799 7.61503 14.96 8.11939 16.505 8.11939C16.7407 8.11944 16.976 8.10096 17.2087 8.06414C17.2087 8.05966 17.2057 8.05555 17.2038 8.05107C17.1111 7.82548 17.0024 7.60655 16.8785 7.39589L15.8455 5.63941C15.3797 4.84767 14.7098 4.1902 13.9031 3.73305C13.0964 3.27591 12.1813 3.0352 11.2498 3.03511H9.18327C8.25177 3.0352 7.3367 3.27591 6.53001 3.73305C5.72332 4.1902 5.05343 4.84767 4.58764 5.63941L3.55456 7.39589C3.08885 8.18765 2.84367 9.08577 2.84367 10C2.84367 10.9142 3.08885 11.8123 3.55456 12.6041L4.58764 14.3606C5.05345 15.1523 5.72335 15.8097 6.53005 16.2668C7.33674 16.7239 8.2518 16.9645 9.18327 16.9645H11.2498C12.1813 16.9645 13.0964 16.7239 13.903 16.2668C14.7097 15.8097 15.3797 15.1523 15.8455 14.3606L16.8785 12.6041C17.0024 12.3935 17.1111 12.1745 17.2038 11.9489C17.2038 11.9445 17.2072 11.9403 17.2087 11.9359C16.976 11.899 16.7407 11.8806 16.505 11.8806C14.96 11.8806 14.3799 12.385 13.7085 12.9692Z" fill="#006BFF"/>
<path d="M10.7881 6.8318H9.9132C8.29967 6.8318 7.2392 7.96297 7.2392 9.41108V10.5874C7.2392 12.0355 8.29967 13.1667 9.9132 13.1667H10.7881C13.1395 13.1667 12.9562 10.8148 16.505 10.8148C16.8415 10.8145 17.1772 10.8446 17.5081 10.9047C17.6157 10.3063 17.6157 9.69404 17.5081 9.09563C17.1773 9.15606 16.8415 9.1863 16.505 9.18597C12.955 9.1856 13.1395 6.8318 10.7881 6.8318Z" fill="#006BFF"/>
<path d="M19.5476 11.7645C18.9427 11.3306 18.2453 11.037 17.508 10.9059C17.508 10.9118 17.5061 10.9178 17.505 10.9234C17.4417 11.2704 17.3424 11.6102 17.2087 11.9374C17.8178 12.0299 18.3958 12.2633 18.8949 12.6183C18.8949 12.6235 18.8918 12.6287 18.8899 12.6343C18.6071 13.5359 18.1796 14.3874 17.6237 15.1569C17.0741 15.9192 16.4068 16.5928 15.6458 17.1534C13.8035 18.5136 11.504 19.1371 9.21162 18.8979C6.9192 18.6588 4.80465 17.5748 3.29492 15.8648C1.7852 14.1549 0.992789 11.9464 1.07769 9.68536C1.16259 7.42428 2.11848 5.27905 3.75235 3.68283C4.86232 2.59424 6.24003 1.8056 7.75191 1.39336C9.2638 0.981119 10.8586 0.959269 12.3816 1.32993C13.9046 1.70058 15.3042 2.45117 16.4447 3.50892C17.5852 4.56668 18.4279 5.8957 18.8911 7.36714C18.893 7.37274 18.8945 7.37797 18.896 7.3832C18.3966 7.73826 17.8182 7.97192 17.2087 8.06414C17.3424 8.39162 17.4418 8.73123 17.5054 9.07845C17.5054 9.08405 17.5054 9.0904 17.5081 9.09563C18.2454 8.96485 18.9429 8.67049 19.5476 8.23624C20.1292 7.81401 20.0166 7.3369 19.928 7.05467C18.6465 2.96866 14.7709 0 10.1886 0C4.56178 0 0 4.47726 0 9.99981C0 15.5224 4.56178 20 10.1886 20C14.7709 20 18.6465 17.0313 19.9261 12.9464C20.0166 12.6642 20.1292 12.1871 19.5476 11.7645Z" fill="#006BFF"/>
<path d="M17.2087 8.06414C16.976 8.10096 16.7407 8.11944 16.505 8.11939C14.96 8.11939 14.3799 7.61503 13.7085 7.03078C13.0611 6.46744 12.2551 5.76634 10.7881 5.76634H9.9132C8.85273 5.76634 7.88849 6.14414 7.1985 6.82993C6.52449 7.49967 6.15325 8.41655 6.15325 9.41183V10.5882C6.15325 11.5834 6.52449 12.5003 7.1985 13.1701C7.88849 13.8559 8.85273 14.2337 9.9132 14.2337H10.7881C12.2551 14.2337 13.0619 13.5326 13.7085 12.9692C14.3799 12.385 14.96 11.8806 16.505 11.8806C16.7407 11.8806 16.976 11.899 17.2087 11.9359C17.3424 11.6087 17.4417 11.2686 17.505 10.9215C17.505 10.9159 17.5073 10.9107 17.5081 10.9047C17.1772 10.8446 16.8415 10.8145 16.505 10.8148C12.955 10.8148 13.1395 13.1667 10.7881 13.1667H9.9132C8.29967 13.1667 7.2392 12.0355 7.2392 10.5874V9.41108C7.2392 7.96297 8.29967 6.8318 9.9132 6.8318H10.7881C13.1395 6.8318 12.9562 9.18448 16.505 9.18448C16.8415 9.18481 17.1773 9.15456 17.5081 9.09413C17.5081 9.08891 17.508 9.08405 17.5054 9.07845C17.4418 8.73123 17.3424 8.39162 17.2087 8.06414Z" fill="#0AE9EF"/>
<path d="M17.2087 8.06414C16.976 8.10096 16.7407 8.11944 16.505 8.11939C14.96 8.11939 14.3799 7.61503 13.7085 7.03078C13.0611 6.46744 12.2551 5.76634 10.7881 5.76634H9.9132C8.85273 5.76634 7.88849 6.14414 7.1985 6.82993C6.52449 7.49967 6.15325 8.41655 6.15325 9.41183V10.5882C6.15325 11.5834 6.52449 12.5003 7.1985 13.1701C7.88849 13.8559 8.85273 14.2337 9.9132 14.2337H10.7881C12.2551 14.2337 13.0619 13.5326 13.7085 12.9692C14.3799 12.385 14.96 11.8806 16.505 11.8806C16.7407 11.8806 16.976 11.899 17.2087 11.9359C17.3424 11.6087 17.4417 11.2686 17.505 10.9215C17.505 10.9159 17.5073 10.9107 17.5081 10.9047C17.1772 10.8446 16.8415 10.8145 16.505 10.8148C12.955 10.8148 13.1395 13.1667 10.7881 13.1667H9.9132C8.29967 13.1667 7.2392 12.0355 7.2392 10.5874V9.41108C7.2392 7.96297 8.29967 6.8318 9.9132 6.8318H10.7881C13.1395 6.8318 12.9562 9.18448 16.505 9.18448C16.8415 9.18481 17.1773 9.15456 17.5081 9.09413C17.5081 9.08891 17.508 9.08405 17.5054 9.07845C17.4418 8.73123 17.3424 8.39162 17.2087 8.06414Z" fill="#0AE9EF"/>
</svg>
