<svg width="32" height="32" viewBox="0 0 32 32" fill="none" xmlns="http://www.w3.org/2000/svg">
<rect width="32" height="32" rx="16" fill="#155DFC"/>
<path fill-rule="evenodd" clip-rule="evenodd" d="M12.3294 9.73888C12.5518 8.64732 13.5231 7.875 14.636 7.875H17.3588C18.4717 7.875 19.443 8.64732 19.6654 9.73888C19.7167 9.99087 19.945 10.1757 20.1824 10.1757H20.1961L20.2097 10.1763C21.3792 10.2275 22.2775 10.371 23.0275 10.863C23.5 11.173 23.9065 11.5718 24.2232 12.0372C24.6173 12.6162 24.7911 13.2808 24.8744 14.0845C24.9557 14.8698 24.9557 15.8542 24.9557 17.1009V17.1719C24.9557 18.4186 24.9557 19.4029 24.8744 20.1882C24.7911 20.9919 24.6173 21.6565 24.2232 22.2355C23.9065 22.7009 23.5 23.0998 23.0275 23.4097C22.4413 23.7943 21.7692 23.9639 20.9541 24.0453C20.156 24.125 19.1549 24.125 17.8836 24.125H14.1112C12.8399 24.125 11.8388 24.125 11.0407 24.0453C10.2256 23.9639 9.55349 23.7943 8.96727 23.4097C8.49474 23.0998 8.08827 22.7009 7.77155 22.2355C7.37749 21.6565 7.20369 20.9919 7.12041 20.1882C7.03905 19.4029 7.03906 18.4186 7.03906 17.1718V17.1009C7.03906 15.8542 7.03905 14.8698 7.12041 14.0845C7.20369 13.2808 7.37749 12.6162 7.77155 12.0372C8.08827 11.5718 8.49474 11.173 8.96727 10.863C9.71725 10.371 10.6156 10.2275 11.7851 10.1763L11.7987 10.1757H11.8124C12.0498 10.1757 12.2781 9.99087 12.3294 9.73888ZM14.636 9.125C14.1017 9.125 13.6549 9.49416 13.5543 9.98839C13.3912 10.7888 12.6816 11.4182 11.8277 11.4256C10.7038 11.4756 10.1019 11.6136 9.65293 11.9081C9.31664 12.1288 9.02866 12.4118 8.80495 12.7405C8.57482 13.0786 8.43653 13.511 8.36376 14.2134C8.28985 14.9267 8.28906 15.8463 8.28906 17.1364C8.28906 18.4264 8.28985 19.346 8.36376 20.0594C8.43653 20.7617 8.57482 21.1941 8.80495 21.5323C9.02866 21.861 9.31664 22.144 9.65293 22.3646C10.0009 22.5928 10.4461 22.7297 11.1649 22.8015C11.8936 22.8743 12.8323 22.875 14.1455 22.875H17.8492C19.1625 22.875 20.1012 22.8743 20.8299 22.8015C21.5487 22.7297 21.9939 22.5928 22.3419 22.3646C22.6782 22.144 22.9661 21.861 23.1898 21.5323C23.42 21.1941 23.5583 20.7617 23.631 20.0594C23.7049 19.346 23.7057 18.4264 23.7057 17.1364C23.7057 15.8463 23.7049 14.9267 23.631 14.2134C23.5583 13.511 23.42 13.0786 23.1898 12.7405C22.9661 12.4118 22.6782 12.1288 22.3419 11.9081C21.8929 11.6136 21.291 11.4756 20.1671 11.4256C19.3132 11.4182 18.6036 10.7888 18.4405 9.98839C18.3399 9.49416 17.893 9.125 17.3588 9.125H14.636ZM15.9974 13.7083C16.3426 13.7083 16.6224 13.9882 16.6224 14.3333V16.2083H18.4974C18.8426 16.2083 19.1224 16.4882 19.1224 16.8333C19.1224 17.1785 18.8426 17.4583 18.4974 17.4583H16.6224V19.3333C16.6224 19.6785 16.3426 19.9583 15.9974 19.9583C15.6522 19.9583 15.3724 19.6785 15.3724 19.3333V17.4583H13.4974C13.1522 17.4583 12.8724 17.1785 12.8724 16.8333C12.8724 16.4882 13.1522 16.2083 13.4974 16.2083H15.3724V14.3333C15.3724 13.9882 15.6522 13.7083 15.9974 13.7083ZM20.3724 14.3333C20.3724 13.9882 20.6522 13.7083 20.9974 13.7083H21.8307C22.1759 13.7083 22.4557 13.9882 22.4557 14.3333C22.4557 14.6785 22.1759 14.9583 21.8307 14.9583H20.9974C20.6522 14.9583 20.3724 14.6785 20.3724 14.3333Z" fill="#FAFAFA"/>
</svg>
