<svg width="20" height="20" viewBox="0 0 20 20" fill="none" xmlns="http://www.w3.org/2000/svg">
<path fill-rule="evenodd" clip-rule="evenodd" d="M9.9974 2.29166C5.7402 2.29166 2.28906 5.74279 2.28906 9.99999C2.28906 14.2572 5.7402 17.7083 9.9974 17.7083C14.2546 17.7083 17.7057 14.2572 17.7057 9.99999C17.7057 5.74279 14.2546 2.29166 9.9974 2.29166ZM1.03906 9.99999C1.03906 5.05244 5.04984 1.04166 9.9974 1.04166C14.9449 1.04166 18.9557 5.05244 18.9557 9.99999C18.9557 14.9475 14.9449 18.9583 9.9974 18.9583C5.04984 18.9583 1.03906 14.9475 1.03906 9.99999ZM9.9974 6.04166C10.3426 6.04166 10.6224 6.32148 10.6224 6.66666V9.74111L12.5227 11.6414C12.7667 11.8855 12.7667 12.2812 12.5227 12.5253C12.2786 12.7693 11.8829 12.7693 11.6388 12.5253L9.55545 10.4419C9.43824 10.3247 9.3724 10.1658 9.3724 9.99999V6.66666C9.3724 6.32148 9.65222 6.04166 9.9974 6.04166Z" fill="#737373"/>
</svg>
