<svg width="20" height="20" viewBox="0 0 20 20" fill="none" xmlns="http://www.w3.org/2000/svg">
<path fill-rule="evenodd" clip-rule="evenodd" d="M9.9974 1.04163C5.04985 1.04163 1.03906 5.05241 1.03906 9.99996C1.03906 14.9475 5.04985 18.9583 9.9974 18.9583C14.9449 18.9583 18.9557 14.9475 18.9557 9.99996C18.9557 5.05241 14.9449 1.04163 9.9974 1.04163ZM2.28906 9.99996C2.28906 5.74276 5.7402 2.29163 9.9974 2.29163C11.9012 2.29163 13.6437 2.98177 14.9886 4.12551C14.983 4.13067 14.9775 4.13595 14.9721 4.14135L4.13881 14.9745C4.13337 14.9799 4.12806 14.9854 4.12286 14.991C2.97917 13.6462 2.28906 11.9037 2.28906 9.99996ZM5.00614 15.8743C6.35099 17.0181 8.0936 17.7083 9.9974 17.7083C14.2546 17.7083 17.7057 14.2572 17.7057 9.99996C17.7057 8.09621 17.0156 6.35364 15.8719 5.00881C15.8667 5.01436 15.8614 5.01984 15.856 5.02524L5.02268 15.8584C5.01724 15.8638 5.01173 15.8691 5.00614 15.8743Z" fill="white"/>
</svg>
