<svg width="20" height="20" viewBox="0 0 20 20" fill="none" xmlns="http://www.w3.org/2000/svg">
<path fill-rule="evenodd" clip-rule="evenodd" d="M9.58073 2.29163C5.55365 2.29163 2.28906 5.55622 2.28906 9.58329C2.28906 13.6104 5.55365 16.875 9.58073 16.875C13.6078 16.875 16.8724 13.6104 16.8724 9.58329C16.8724 5.55622 13.6078 2.29163 9.58073 2.29163ZM1.03906 9.58329C1.03906 4.86586 4.8633 1.04163 9.58073 1.04163C14.2982 1.04163 18.1224 4.86586 18.1224 9.58329C18.1224 11.7171 17.34 13.6681 16.0465 15.1651L18.7727 17.8914C19.0167 18.1354 19.0167 18.5312 18.7727 18.7752C18.5286 19.0193 18.1329 19.0193 17.8888 18.7752L15.1626 16.049C13.6655 17.3426 11.7145 18.125 9.58073 18.125C4.8633 18.125 1.03906 14.3007 1.03906 9.58329Z" fill="#A1A1A1"/>
</svg>
