<svg width="20" height="20" viewBox="0 0 20 20" fill="none" xmlns="http://www.w3.org/2000/svg">
<path fill-rule="evenodd" clip-rule="evenodd" d="M11.752 1.99254C13.0199 0.724656 15.0755 0.724656 16.3434 1.99254C17.6113 3.26042 17.6113 5.31606 16.3434 6.58394L10.015 12.9123C9.65837 13.269 9.44055 13.4868 9.19779 13.6762C8.91176 13.8993 8.60228 14.0905 8.27483 14.2466C7.99689 14.3791 7.70464 14.4765 7.22609 14.6359L4.99888 15.3783L4.46416 15.5566C3.98553 15.7161 3.45785 15.5916 3.1011 15.2348C2.74435 14.8781 2.61978 14.3504 2.77933 13.8718L3.69997 11.1098C3.85946 10.6313 3.95686 10.339 4.08931 10.0611C4.24537 9.73363 4.43664 9.42415 4.65973 9.13813C4.84909 8.89536 5.06693 8.67754 5.42364 8.32087L11.752 1.99254ZM4.97004 14.0703L4.26557 13.3659L4.87259 11.5448C5.04932 11.0146 5.12232 10.799 5.21772 10.5989C5.33472 10.3534 5.47812 10.1213 5.64537 9.9069C5.78175 9.73206 5.94192 9.57036 6.33711 9.17517L11.2463 4.26602C11.4489 4.77435 11.7917 5.38786 12.3699 5.96602C12.9481 6.54417 13.5616 6.88702 14.0699 7.08966L9.16075 11.9988C8.76556 12.394 8.60386 12.5542 8.42901 12.6905C8.21457 12.8578 7.98255 13.0012 7.73705 13.1182C7.53688 13.2136 7.3213 13.2866 6.7911 13.4633L4.97004 14.0703ZM15.0659 6.09363C14.9627 6.07098 14.8337 6.03689 14.687 5.986C14.2837 5.84606 13.7531 5.58145 13.2538 5.08213C12.7545 4.58282 12.4899 4.05226 12.3499 3.6489C12.299 3.50221 12.2649 3.37318 12.2423 3.27L12.6359 2.87642C13.4156 2.09669 14.6798 2.09669 15.4595 2.87642C16.2392 3.65614 16.2392 4.92033 15.4595 5.70005L15.0659 6.09363ZM2.71095 18.3333C2.71095 17.9881 2.99078 17.7083 3.33595 17.7083H16.6693V18.9583H3.33595C2.99078 18.9583 2.71095 18.6785 2.71095 18.3333Z" fill="black"/>
</svg>
