<svg width="20" height="20" viewBox="0 0 20 20" fill="none" xmlns="http://www.w3.org/2000/svg">
<path fill-rule="evenodd" clip-rule="evenodd" d="M11.752 1.9926C13.0199 0.724717 15.0755 0.724717 16.3434 1.9926C17.6113 3.26048 17.6113 5.31612 16.3434 6.584L10.015 12.9123C9.65837 13.269 9.44055 13.4869 9.19779 13.6762C8.91176 13.8993 8.60228 14.0906 8.27483 14.2467C7.99689 14.3791 7.70464 14.4765 7.22609 14.636L4.99888 15.3784L4.46416 15.5566C3.98553 15.7162 3.45785 15.5916 3.1011 15.2349C2.74435 14.8781 2.61978 14.3504 2.77933 13.8718L3.69997 11.1099C3.85946 10.6313 3.95686 10.3391 4.08931 10.0611C4.24537 9.73369 4.43664 9.42421 4.65973 9.13819C4.84909 8.89542 5.06693 8.6776 5.42364 8.32093L11.752 1.9926ZM4.97004 14.0704L4.26557 13.3659L4.87259 11.5449C5.04932 11.0147 5.12232 10.7991 5.21772 10.5989C5.33472 10.3534 5.47812 10.1214 5.64537 9.90697C5.78175 9.73212 5.94192 9.57042 6.33711 9.17523L11.2463 4.26608C11.4489 4.77441 11.7917 5.38793 12.3699 5.96608C12.9481 6.54423 13.5616 6.88708 14.0699 7.08972L9.16075 11.9989C8.76556 12.3941 8.60386 12.5542 8.42901 12.6906C8.21457 12.8579 7.98255 13.0013 7.73705 13.1183C7.53688 13.2137 7.3213 13.2866 6.7911 13.4634L4.97004 14.0704ZM15.0659 6.09369C14.9627 6.07104 14.8337 6.03695 14.687 5.98606C14.2837 5.84612 13.7531 5.58151 13.2538 5.0822C12.7545 4.58288 12.4899 4.05232 12.3499 3.64897C12.299 3.50227 12.2649 3.37325 12.2423 3.27006L12.6359 2.87648C13.4156 2.09676 14.6798 2.09676 15.4595 2.87648C16.2392 3.65621 16.2392 4.92039 15.4595 5.70012L15.0659 6.09369ZM2.71095 18.3334C2.71095 17.9882 2.99078 17.7084 3.33595 17.7084H16.6693V18.9584H3.33595C2.99078 18.9584 2.71095 18.6785 2.71095 18.3334Z" fill="black"/>
</svg>
