<svg width="32" height="32" viewBox="0 0 32 32" fill="none" xmlns="http://www.w3.org/2000/svg">
<path fill-rule="evenodd" clip-rule="evenodd" d="M12.2727 4.24263C11.9365 4.34913 11.6045 4.47017 11.2776 4.60557C9.78129 5.22537 8.42167 6.13384 7.27641 7.2791C6.13116 8.42435 5.22269 9.78397 4.60288 11.2803C4.111 12.4678 3.80856 13.723 3.70467 15.0001H9.67864C9.72131 13.5389 9.85738 12.0989 10.0835 10.7342C10.3607 9.06086 10.7703 7.51893 11.2977 6.2006C11.5856 5.48084 11.9109 4.82197 12.2727 4.24263ZM15.9974 1.66675C14.1151 1.66675 12.2513 2.03749 10.5123 2.75781C8.77327 3.47812 7.19317 4.53391 5.8622 5.86488C4.53123 7.19586 3.47544 8.77595 2.75512 10.515C2.03481 12.254 1.66406 14.1178 1.66406 16.0001C1.66406 17.8824 2.0348 19.7462 2.75512 21.4852C3.47544 23.2242 4.53122 24.8043 5.8622 26.1353C7.19317 27.4663 8.77327 28.522 10.5123 29.2424C12.2513 29.9627 14.1151 30.3334 15.9974 30.3334C17.8797 30.3334 19.7435 29.9627 21.4825 29.2424C23.2215 28.522 24.8016 27.4663 26.1326 26.1353C27.4636 24.8043 28.5194 23.2242 29.2397 21.4852C29.96 19.7462 30.3307 17.8824 30.3307 16.0001C30.3307 14.1178 29.96 12.254 29.2397 10.515C28.5194 8.77595 27.4636 7.19586 26.1326 5.86489C24.8016 4.53391 23.2215 3.47813 21.4825 2.75781C19.7435 2.03749 17.8797 1.66675 15.9974 1.66675ZM15.9974 3.66675C15.6491 3.66675 15.199 3.83447 14.6758 4.37634C14.1486 4.92222 13.6209 5.77776 13.1546 6.94338C12.6915 8.10127 12.3154 9.49906 12.0566 11.0611C11.8489 12.3143 11.7216 13.6443 11.6796 15.0001L20.3152 15.0001C20.2732 13.6443 20.1458 12.3143 19.9382 11.0611C19.6794 9.49907 19.3033 8.10128 18.8402 6.94338C18.3739 5.77776 17.8462 4.92222 17.319 4.37635C16.7958 3.83447 16.3457 3.66675 15.9974 3.66675ZM22.3161 15.0001C22.2735 13.5389 22.1374 12.0989 21.9113 10.7342C21.6341 9.06086 21.2244 7.51894 20.6971 6.2006C20.4092 5.48084 20.0839 4.82197 19.7221 4.24263C20.0583 4.34913 20.3903 4.47017 20.7172 4.60557C22.2135 5.22538 23.5731 6.13384 24.7184 7.2791C25.8636 8.42436 26.7721 9.78397 27.3919 11.2803C27.8838 12.4678 28.1862 13.723 28.2901 15.0001H22.3161ZM20.3152 17.0001L11.6796 17.0001C11.7216 18.3559 11.8489 19.6858 12.0566 20.9391C12.3154 22.5011 12.6915 23.8989 13.1546 25.0568C13.6209 26.2224 14.1486 27.0779 14.6758 27.6238C15.199 28.1657 15.6491 28.3334 15.9974 28.3334C16.3457 28.3334 16.7958 28.1657 17.319 27.6238C17.8462 27.0779 18.3739 26.2224 18.8402 25.0568C19.3033 23.8989 19.6794 22.5011 19.9382 20.9391C20.1458 19.6858 20.2732 18.3559 20.3152 17.0001ZM19.7221 27.7575C20.0839 27.1782 20.4092 26.5193 20.6971 25.7996C21.2244 24.4812 21.6341 22.9393 21.9113 21.266C22.1374 19.9013 22.2735 18.4613 22.3161 17.0001H28.2901C28.1862 18.2772 27.8838 19.5323 27.3919 20.7198C26.7721 22.2162 25.8636 23.5758 24.7184 24.7211C23.5731 25.8663 22.2135 26.7748 20.7172 27.3946C20.3903 27.53 20.0583 27.651 19.7221 27.7575ZM12.2727 27.7575C11.9109 27.1782 11.5856 26.5193 11.2977 25.7996C10.7703 24.4812 10.3607 22.9393 10.0835 21.266C9.85738 19.9013 9.72131 18.4613 9.67864 17.0001H3.70467C3.80856 18.2771 4.111 19.5323 4.60288 20.7198C5.22269 22.2162 6.13116 23.5758 7.27641 24.7211C8.42167 25.8663 9.78128 26.7748 11.2776 27.3946C11.6045 27.53 11.9365 27.651 12.2727 27.7575Z" fill="#155DFC"/>
</svg>
