<svg width="20" height="20" viewBox="0 0 20 20" fill="none" xmlns="http://www.w3.org/2000/svg">
<path fill-rule="evenodd" clip-rule="evenodd" d="M4.375 6.417C4.375 3.41854 6.92396 1.04175 10 1.04175C13.0066 1.04175 15.5097 3.31248 15.6211 6.21498L16.0193 6.3477C16.4052 6.47632 16.7435 6.58905 17.0118 6.71389C17.302 6.84886 17.5678 7.0227 17.7711 7.3047C17.9743 7.5867 18.0552 7.8939 18.0915 8.21181C18.1251 8.50588 18.125 8.86243 18.125 9.26923V14.0594C18.125 14.5672 18.125 15.0005 18.0856 15.3481C18.0442 15.7137 17.9515 16.073 17.7004 16.3795C17.5561 16.5555 17.3811 16.7038 17.1837 16.8171C16.8401 17.0145 16.4704 17.0468 16.103 17.0276C15.7537 17.0094 15.3263 16.9381 14.8254 16.8546L14.7907 16.8488C13.7133 16.6693 13.2793 16.6014 12.8562 16.6368C12.7014 16.6498 12.5476 16.6729 12.3959 16.706C11.9812 16.7966 11.5824 16.991 10.5967 17.4838C10.5624 17.501 10.5285 17.5179 10.495 17.5347C9.34281 18.111 8.63294 18.4661 7.86693 18.577C7.63654 18.6104 7.40402 18.6269 7.17122 18.6265C6.39724 18.625 5.64996 18.3758 4.4378 17.9715C4.40273 17.9598 4.36728 17.948 4.33143 17.936L4.01179 17.8295L3.9807 17.8191C3.59478 17.6905 3.25652 17.5778 2.98816 17.4529C2.69805 17.318 2.43218 17.1441 2.22892 16.8621C2.02567 16.5801 1.94482 16.2729 1.90853 15.955C1.87496 15.661 1.87498 15.3044 1.875 14.8976L1.875 10.7144C1.87498 10.0594 1.87495 9.50713 1.93108 9.07464C1.98965 8.62322 2.1221 8.18184 2.48552 7.84991C2.59235 7.75234 2.71011 7.66746 2.83646 7.59697C3.26627 7.35716 3.72689 7.37109 4.17367 7.45827C4.26431 7.47596 4.35924 7.49773 4.45849 7.52303C4.40343 7.1515 4.375 6.78111 4.375 6.417ZM4.79058 8.92449C4.43393 8.80947 4.1602 8.72922 3.93428 8.68513C3.60499 8.62088 3.49705 8.6598 3.44549 8.68857C3.40337 8.71206 3.36412 8.74036 3.32851 8.77288C3.28491 8.8127 3.21386 8.90279 3.17068 9.2355C3.12626 9.57787 3.125 10.048 3.125 10.7568V14.8649C3.125 15.3141 3.12595 15.5985 3.15046 15.8132C3.17315 16.012 3.21028 16.0859 3.24298 16.1312C3.27567 16.1766 3.33403 16.2352 3.51541 16.3196C3.71137 16.4107 3.98091 16.5016 4.40708 16.6436L4.72671 16.7502C6.07969 17.2012 6.62574 17.3754 7.17358 17.3765C7.34565 17.3768 7.51751 17.3646 7.6878 17.3399C8.22985 17.2614 8.75078 17.0093 10.0377 16.3658C10.0637 16.3528 10.0895 16.3399 10.115 16.3271C10.9989 15.8851 11.5434 15.6127 12.1292 15.4848C12.3345 15.44 12.5425 15.4087 12.7519 15.3912C13.3494 15.3412 13.9453 15.4406 14.9121 15.6018C14.9398 15.6064 14.9679 15.6111 14.9962 15.6158C15.5414 15.7067 15.8982 15.7652 16.1683 15.7793C16.4282 15.7929 16.5175 15.7583 16.5612 15.7332C16.627 15.6954 16.6854 15.646 16.7335 15.5873C16.7654 15.5483 16.8143 15.4659 16.8436 15.2072C16.8741 14.9385 16.875 14.577 16.875 14.0242V9.30198C16.875 8.85276 16.8741 8.56832 16.8495 8.3536C16.8269 8.15483 16.7897 8.08094 16.757 8.03559C16.7243 7.99023 16.666 7.93164 16.4846 7.84726C16.2886 7.7561 16.0191 7.66525 15.5929 7.5232L15.5439 7.50685C15.3854 8.59135 14.9997 9.68619 14.4311 10.6634C13.6707 11.9701 12.5581 13.1083 11.1642 13.7164C10.4245 14.0391 9.57554 14.0391 8.83576 13.7164C7.44189 13.1083 6.32933 11.9701 5.56895 10.6634C5.24893 10.1134 4.98684 9.52617 4.79058 8.92449ZM10 2.29175C7.55319 2.29175 5.625 4.16848 5.625 6.417C5.625 7.5982 5.98954 8.90078 6.64935 10.0347C7.30934 11.1689 8.23961 12.0925 9.33558 12.5706C9.75665 12.7543 10.2434 12.7543 10.6644 12.5706C11.7604 12.0925 12.6907 11.1689 13.3507 10.0347C14.0105 8.90078 14.375 7.5982 14.375 6.417C14.375 4.16848 12.4468 2.29175 10 2.29175ZM10 5.62508C9.42471 5.62508 8.95834 6.09145 8.95834 6.66675C8.95834 7.24204 9.42471 7.70841 10 7.70841C10.5753 7.70841 11.0417 7.24204 11.0417 6.66675C11.0417 6.09145 10.5753 5.62508 10 5.62508ZM7.70834 6.66675C7.70834 5.4011 8.73435 4.37508 10 4.37508C11.2657 4.37508 12.2917 5.4011 12.2917 6.66675C12.2917 7.9324 11.2657 8.95841 10 8.95841C8.73435 8.95841 7.70834 7.9324 7.70834 6.66675Z" fill="#737373"/>
</svg>
