<svg width="42" height="42" viewBox="0 0 42 42" fill="none" xmlns="http://www.w3.org/2000/svg">
<g filter="url(#filter0_dd_410_21131)">
<rect x="5" y="1" width="32" height="32" rx="16" fill="#FB2C36"/>
<path fill-rule="evenodd" clip-rule="evenodd" d="M19.5885 8.87498H22.4064C22.5867 8.87487 22.7438 8.87477 22.8922 8.89846C23.4783 8.99205 23.9854 9.35759 24.2595 9.884C24.3289 10.0172 24.3785 10.1663 24.4354 10.3374L24.5284 10.6165C24.5442 10.6637 24.5487 10.6771 24.5525 10.6876C24.6984 11.0911 25.0768 11.3638 25.5057 11.3747C25.5169 11.375 25.5308 11.375 25.5808 11.375H28.0808C28.426 11.375 28.7058 11.6548 28.7058 12C28.7058 12.3452 28.426 12.625 28.0808 12.625H13.9141C13.5689 12.625 13.2891 12.3452 13.2891 12C13.2891 11.6548 13.5689 11.375 13.9141 11.375H16.4141C16.4642 11.375 16.478 11.375 16.4893 11.3747C16.9181 11.3638 17.2965 11.0911 17.4424 10.6877C17.4463 10.6771 17.4507 10.664 17.4665 10.6165L17.5595 10.3374C17.6164 10.1663 17.666 10.0172 17.7354 9.884C18.0095 9.35759 18.5167 8.99205 19.1028 8.89846C19.2511 8.87477 19.4082 8.87487 19.5885 8.87498ZM18.5042 11.375C18.5471 11.2908 18.5852 11.2033 18.6179 11.1129C18.6278 11.0854 18.6376 11.0562 18.6501 11.0186L18.7332 10.7691C18.8092 10.5411 18.8267 10.4947 18.8441 10.4613C18.9354 10.2859 19.1045 10.164 19.2999 10.1328C19.337 10.1269 19.3866 10.125 19.6269 10.125H22.3681C22.6083 10.125 22.658 10.1269 22.6951 10.1328C22.8904 10.164 23.0595 10.2859 23.1509 10.4613C23.1682 10.4947 23.1857 10.5411 23.2617 10.7691L23.3448 11.0184L23.3771 11.1129C23.4098 11.2033 23.4478 11.2908 23.4907 11.375H18.5042Z" fill="#FAFAFA"/>
<path d="M15.9266 14.0418C15.9037 13.6973 15.6059 13.4368 15.2614 13.4597C14.917 13.4827 14.6564 13.7805 14.6794 14.1249L15.0656 19.918C15.1369 20.987 15.1944 21.8504 15.3294 22.528C15.4697 23.2324 15.7084 23.8208 16.2014 24.282C16.6944 24.7432 17.2973 24.9423 18.0096 25.0354C18.6946 25.125 19.5599 25.125 20.6312 25.125H21.3636C22.4349 25.125 23.3003 25.125 23.9854 25.0354C24.6976 24.9423 25.3005 24.7432 25.7935 24.282C26.2865 23.8208 26.5252 23.2324 26.6655 22.528C26.8005 21.8504 26.8581 20.987 26.9293 19.918L27.3155 14.1249C27.3385 13.7805 27.0779 13.4827 26.7335 13.4597C26.3891 13.4368 26.0913 13.6973 26.0683 14.0418L25.685 19.791C25.6101 20.9142 25.5568 21.6957 25.4396 22.2838C25.326 22.8541 25.1674 23.1561 24.9396 23.3692C24.7117 23.5824 24.3999 23.7205 23.8232 23.796C23.2287 23.8737 22.4454 23.875 21.3197 23.875H20.6752C19.5495 23.875 18.7662 23.8737 18.1717 23.796C17.595 23.7205 17.2832 23.5824 17.0554 23.3692C16.8275 23.1561 16.6689 22.8541 16.5553 22.2838C16.4382 21.6957 16.3848 20.9142 16.3099 19.791L15.9266 14.0418Z" fill="#FAFAFA"/>
<path d="M18.8519 15.5448C19.1954 15.5104 19.5017 15.761 19.536 16.1045L19.9527 20.2711C19.9871 20.6146 19.7365 20.9209 19.393 20.9552C19.0495 20.9896 18.7433 20.739 18.7089 20.3955L18.2922 16.2289C18.2579 15.8854 18.5085 15.5791 18.8519 15.5448Z" fill="#FAFAFA"/>
<path d="M23.143 15.5448C23.4865 15.5791 23.737 15.8854 23.7027 16.2289L23.286 20.3955C23.2517 20.739 22.9454 20.9896 22.6019 20.9552C22.2585 20.9209 22.0079 20.6146 22.0422 20.2711L22.4589 16.1045C22.4933 15.761 22.7995 15.5104 23.143 15.5448Z" fill="#FAFAFA"/>
</g>
<defs>
<filter id="filter0_dd_410_21131" x="0" y="0" width="42" height="42" filterUnits="userSpaceOnUse" color-interpolation-filters="sRGB">
<feFlood flood-opacity="0" result="BackgroundImageFix"/>
<feColorMatrix in="SourceAlpha" type="matrix" values="0 0 0 0 0 0 0 0 0 0 0 0 0 0 0 0 0 0 127 0" result="hardAlpha"/>
<feMorphology radius="1" operator="erode" in="SourceAlpha" result="effect1_dropShadow_410_21131"/>
<feOffset dy="4"/>
<feGaussianBlur stdDeviation="3"/>
<feColorMatrix type="matrix" values="0 0 0 0 0 0 0 0 0 0 0 0 0 0 0 0 0 0 0.1 0"/>
<feBlend mode="normal" in2="BackgroundImageFix" result="effect1_dropShadow_410_21131"/>
<feColorMatrix in="SourceAlpha" type="matrix" values="0 0 0 0 0 0 0 0 0 0 0 0 0 0 0 0 0 0 127 0" result="hardAlpha"/>
<feMorphology radius="2" operator="erode" in="SourceAlpha" result="effect2_dropShadow_410_21131"/>
<feOffset dy="2"/>
<feGaussianBlur stdDeviation="2"/>
<feColorMatrix type="matrix" values="0 0 0 0 0 0 0 0 0 0 0 0 0 0 0 0 0 0 0.1 0"/>
<feBlend mode="normal" in2="effect1_dropShadow_410_21131" result="effect2_dropShadow_410_21131"/>
<feBlend mode="normal" in="SourceGraphic" in2="effect2_dropShadow_410_21131" result="shape"/>
</filter>
</defs>
</svg>
