<svg width="20" height="20" viewBox="0 0 20 20" fill="none" xmlns="http://www.w3.org/2000/svg">
<path fill-rule="evenodd" clip-rule="evenodd" d="M10.0026 1.04167C7.81648 1.04167 6.04427 2.81388 6.04427 5.00001C6.04427 7.18613 7.81648 8.95834 10.0026 8.95834C12.1887 8.95834 13.9609 7.18613 13.9609 5.00001C13.9609 2.81388 12.1887 1.04167 10.0026 1.04167ZM7.29427 5.00001C7.29427 3.50423 8.50683 2.29167 10.0026 2.29167C11.4984 2.29167 12.7109 3.50423 12.7109 5.00001C12.7109 6.49578 11.4984 7.70834 10.0026 7.70834C8.50683 7.70834 7.29427 6.49578 7.29427 5.00001Z" fill="black"/>
<path d="M15.0026 2.70834C14.6574 2.70834 14.3776 2.98816 14.3776 3.33334C14.3776 3.67852 14.6574 3.95834 15.0026 3.95834C16.1497 3.95834 16.8776 4.71311 16.8776 5.41667C16.8776 6.12023 16.1497 6.87501 15.0026 6.87501C14.6574 6.87501 14.3776 7.15483 14.3776 7.50001C14.3776 7.84518 14.6574 8.12501 15.0026 8.12501C16.617 8.12501 18.1276 7.0143 18.1276 5.41667C18.1276 3.81904 16.617 2.70834 15.0026 2.70834Z" fill="black"/>
<path d="M5.6276 3.33334C5.6276 2.98816 5.34778 2.70834 5.0026 2.70834C3.38825 2.70834 1.8776 3.81904 1.8776 5.41667C1.8776 7.0143 3.38825 8.12501 5.0026 8.12501C5.34778 8.12501 5.6276 7.84518 5.6276 7.50001C5.6276 7.15483 5.34778 6.87501 5.0026 6.87501C3.85553 6.87501 3.1276 6.12023 3.1276 5.41667C3.1276 4.71311 3.85553 3.95834 5.0026 3.95834C5.34778 3.95834 5.6276 3.67852 5.6276 3.33334Z" fill="black"/>
<path fill-rule="evenodd" clip-rule="evenodd" d="M10.0026 10.2083C8.51571 10.2083 7.14131 10.609 6.12038 11.2896C5.10382 11.9673 4.3776 12.9722 4.3776 14.1667C4.3776 15.3611 5.10382 16.366 6.12038 17.0437C7.14131 17.7243 8.51571 18.125 10.0026 18.125C11.4895 18.125 12.8639 17.7243 13.8848 17.0437C14.9014 16.366 15.6276 15.3611 15.6276 14.1667C15.6276 12.9722 14.9014 11.9673 13.8848 11.2896C12.8639 10.609 11.4895 10.2083 10.0026 10.2083ZM5.6276 14.1667C5.6276 13.5202 6.02067 12.8584 6.81376 12.3297C7.60247 11.8039 8.72807 11.4583 10.0026 11.4583C11.2771 11.4583 12.4027 11.8039 13.1914 12.3297C13.9845 12.8584 14.3776 13.5202 14.3776 14.1667C14.3776 14.8132 13.9845 15.4749 13.1914 16.0037C12.4027 16.5295 11.2771 16.875 10.0026 16.875C8.72807 16.875 7.60247 16.5295 6.81376 16.0037C6.02067 15.4749 5.6276 14.8132 5.6276 14.1667Z" fill="black"/>
<path d="M16.0588 11.5328C16.1327 11.1956 16.466 10.9822 16.8031 11.0562C17.6047 11.232 18.327 11.5495 18.8633 11.9883C19.3991 12.4267 19.7943 13.0294 19.7943 13.75C19.7943 14.4706 19.3991 15.0733 18.8633 15.5117C18.327 15.9505 17.6047 16.2681 16.8031 16.4438C16.466 16.5178 16.1327 16.3044 16.0588 15.9672C15.9848 15.6301 16.1982 15.2968 16.5354 15.2228C17.1957 15.078 17.7234 14.8293 18.0717 14.5443C18.4204 14.259 18.5443 13.9803 18.5443 13.75C18.5443 13.5198 18.4204 13.241 18.0717 12.9557C17.7234 12.6707 17.1957 12.422 16.5354 12.2772C16.1982 12.2032 15.9848 11.87 16.0588 11.5328Z" fill="black"/>
<path d="M3.20206 11.0562C3.53923 10.9822 3.87249 11.1956 3.94643 11.5328C4.02037 11.87 3.80698 12.2032 3.46981 12.2772C2.80951 12.422 2.28181 12.6707 1.93354 12.9557C1.58479 13.241 1.46094 13.5198 1.46094 13.75C1.46094 13.9803 1.58479 14.259 1.93354 14.5443C2.28181 14.8293 2.80951 15.078 3.46981 15.2228C3.80698 15.2968 4.02037 15.6301 3.94643 15.9672C3.87249 16.3044 3.53923 16.5178 3.20206 16.4438C2.40049 16.2681 1.67819 15.9505 1.14193 15.5117C0.606144 15.0733 0.210938 14.4706 0.210938 13.75C0.210938 13.0294 0.606144 12.4267 1.14193 11.9883C1.67819 11.5495 2.40049 11.232 3.20206 11.0562Z" fill="black"/>
</svg>
